<svg width="24" height="24" viewBox="0 0 24 24" fill="none" xmlns="http://www.w3.org/2000/svg">
  <path
    d="M7.56461 11.4356C7.20189 11.4356 6.90808 11.1455 6.90808 10.7864C6.90808 10.4309 7.20189 10.1371 7.56461 10.1371C7.92733 10.1371 8.22113 10.4273 8.22113 10.7864C8.22113 11.1455 7.92733 11.4356 7.56461 11.4356Z"
    fill="currentColor"
  />
  <path
    d="M16.4223 11.4356C16.0596 11.4356 15.7658 11.1455 15.7658 10.7864C15.7658 10.4309 16.0596 10.1371 16.4223 10.1371C16.7851 10.1371 17.0789 10.4273 17.0789 10.7864C17.0789 11.1455 16.7851 11.4356 16.4223 11.4356Z"
    fill="currentColor"
  />
  <path
    d="M19.0884 14.4406H15.3088C15.2617 14.2701 15.1855 14.0815 15.0912 13.882C15.0948 13.8856 15.1021 13.8892 15.1093 13.8892C15.113 13.8929 15.1202 13.8929 15.1239 13.8929C15.1311 13.8929 15.1384 13.8965 15.1456 13.8965C15.1529 13.8965 15.1601 13.8965 15.1674 13.8929L18.664 13.1021C18.7184 13.0912 18.7511 13.0368 18.7402 12.9824C18.7293 12.928 18.6749 12.8954 18.6205 12.9063L15.1239 13.697C15.0912 13.7042 15.0694 13.726 15.0549 13.7514C15.0513 13.755 15.0513 13.7623 15.0477 13.7659C14.5181 12.7394 13.4118 11.5497 12.1495 11.5497C10.8873 11.5497 9.79548 12.7213 9.25865 13.7441C9.25503 13.7405 9.25503 13.7369 9.2514 13.7333C9.23689 13.7151 9.21875 13.7006 9.19336 13.6934L5.69673 12.9026C5.64232 12.8918 5.58792 12.9244 5.57703 12.9788C5.56615 13.0332 5.5988 13.0876 5.6532 13.0985L9.14984 13.8892C9.15709 13.8892 9.16434 13.8929 9.1716 13.8929C9.17523 13.8929 9.17885 13.8929 9.18611 13.8929C9.18974 13.8929 9.19699 13.8892 9.20062 13.8892C9.10631 14.0815 9.03739 14.2701 8.99024 14.4369H5.22882C5.17441 14.4369 5.12726 14.4805 5.12726 14.5349C5.12726 14.5893 5.17079 14.6364 5.22882 14.6364H8.94309C8.92858 14.7162 8.92132 14.7888 8.92132 14.8541C8.92132 14.9883 8.95034 15.1189 9.00837 15.2458L8.99386 15.2494L8.98299 15.2531L5.78741 15.9785C5.73301 15.9894 5.70036 16.0438 5.71124 16.0982C5.72212 16.1454 5.76565 16.1744 5.80918 16.1744C5.81643 16.1744 5.82368 16.1744 5.83094 16.1708L9.08092 15.4344L9.0918 15.4308L9.10631 15.4272C9.3711 15.8189 9.9043 16.1454 10.5862 16.3449C10.724 16.3848 10.8655 16.421 11.0142 16.45L12.1858 15.293L13.3429 16.4392C13.4916 16.4101 13.6331 16.3702 13.7673 16.3303C14.4238 16.1309 14.9316 15.8117 15.1891 15.4272L15.2 15.4308L15.2145 15.4344L18.4827 16.1744C18.4899 16.1744 18.4972 16.178 18.5044 16.178C18.5516 16.178 18.5915 16.1454 18.6024 16.1018C18.6132 16.0474 18.5806 15.9966 18.5262 15.9821L15.3125 15.2531L15.3016 15.2494L15.2907 15.2458C15.3451 15.1225 15.3741 14.9919 15.3741 14.8577C15.3741 14.7924 15.3669 14.7162 15.3524 14.6401H19.0884C19.1428 14.6401 19.19 14.5965 19.19 14.5385C19.19 14.4877 19.1428 14.4406 19.0884 14.4406ZM13.3175 12.8373C13.3175 13.0405 13.0491 13.2073 12.7154 13.2073C12.4542 13.2073 12.2293 13.1021 12.1459 12.957C12.0661 13.1021 11.8412 13.2073 11.5801 13.2073C11.2464 13.2073 10.978 13.0405 10.978 12.8373C10.978 12.8373 10.9272 12.6741 11.3044 12.3658C11.4422 12.2534 11.5946 12.1518 11.7288 12.0684C11.9791 11.9124 12.3019 11.916 12.5485 12.0756C12.6719 12.1554 12.8097 12.2497 12.9475 12.3513C13.1361 12.4928 13.2305 12.6125 13.2776 12.6959C13.3102 12.7539 13.3175 12.7974 13.3211 12.8192C13.3175 12.8265 13.3175 12.8301 13.3175 12.8373Z"
    fill="currentColor"
  />
  <path
    d="M20.1328 16.2586C20.5717 15.2865 20.8002 14.2346 20.8002 13.1464C20.8002 12.0039 20.5463 10.8939 20.0603 9.87833C20.0567 9.8747 20.0567 9.87108 20.0567 9.86745C20.0567 9.86382 20.053 9.86019 20.0494 9.85657C20.3904 9.50473 20.6116 8.92075 20.6116 8.26059C20.6116 7.19057 20.0276 6.32004 19.3095 6.32004C18.8125 6.32004 18.3773 6.73717 18.1596 7.35379C18.156 7.35016 18.1524 7.34654 18.1487 7.34291C18.1451 7.33928 18.1415 7.33928 18.1415 7.33566C16.5237 5.8884 14.4018 5.09404 12.153 5.09404C9.90047 5.09404 7.78217 5.8884 6.16443 7.33566C6.16081 7.33928 6.15718 7.34291 6.15355 7.34291C6.14993 7.34654 6.1463 7.35016 6.14267 7.35379C5.92504 6.74079 5.48977 6.32004 4.99285 6.32004C4.27466 6.32004 3.69068 7.19057 3.69068 8.26059C3.69068 8.92075 3.91194 9.50473 4.25289 9.85657C4.25289 9.86019 4.24927 9.86382 4.24564 9.86745C4.24564 9.87108 4.24201 9.8747 4.24201 9.87833C3.75597 10.8939 3.50206 12.0002 3.50206 13.1464C3.50206 14.289 3.73783 15.3119 4.1876 16.2985V20.2921C2.14186 18.2427 0.886841 15.3881 0.886841 12.1961C0.886841 5.85213 5.84161 0.835693 12.1203 0.835693C18.399 0.835693 23.3538 5.85213 23.3538 12.1961C23.3538 15.3445 22.1314 18.1665 20.1365 20.2086V16.2586H20.1328Z"
    fill="currentColor"
  />
</svg>